# xmcd CD database file
#
# Track frame offsets:
#	150
#	20875
#	42380
#	63017
#	77575
#	114010
#	135260
#	151527
#	172147
#	199730
#	235650
#	252855
#
# Disc length: 3633 seconds
#
# Revision: 5
# Processed by: cddbd v1.5.2PL0 Copyright (c) Steve Scherf et al.
# Submitted via: CDex 2.02
#
DISCID=8a0e2f0c
DTITLE=Ruth Brown - A Good Day for the Blues
DYEAR=1999
DGENRE=Blues
TTITLE0=Good Day For The Blues
TTITLE1=Can't Stand A Broken Man
TTITLE2=Never Let Me Go
TTITLE3=Hangin' By A Shoestring
TTITLE4=H.B.'s Funky Fable
TTITLE5=A Lover Is Forever
TTITLE6=Ice Water In Your Veins
TTITLE7=True
TTITLE8=Cabbage Head
TTITLE9=The Richest One
TTITLE10=Be Good To Me Tonight
TTITLE11=I Belive I Can Fly
EXTD=YEAR: 1999
EXTT0=
EXTT1=
EXTT2=
EXTT3=
EXTT4=
EXTT5=
EXTT6=
EXTT7=
EXTT8=
EXTT9=
EXTT10=
EXTT11=
PLAYORDER=
